<?xml version="1.0" encoding="utf-8"?>
<!-- Generator: Adobe Illustrator 24.0.3, SVG Export Plug-In . SVG Version: 6.00 Build 0)  -->
<svg version="1.1" id="Layer_1" xmlns="http://www.w3.org/2000/svg" xmlns:xlink="http://www.w3.org/1999/xlink" x="0px" y="0px"
	 viewBox="0 0 319.4 1234.3" style="enable-background:new 0 0 319.4 1234.3;" xml:space="preserve">
<style type="text/css">
	.st0{fill:none;stroke:#DC143C;stroke-width:1.5138;stroke-miterlimit:3.0275;}
	.st1{fill:none;stroke:#00BFFF;stroke-width:1.5138;stroke-miterlimit:3.0275;stroke-dasharray:3.7844,3.7844;}
</style>
<title>The Platonic Solids</title>
<g>
	<path id="dod-outline" class="st0" d="M84.2,89l-12.6,9.1l0,0L62.6,89l-13.6-7l0,0l7-13.6l2.3-15.1l0,0l15.1,2.3l17.5,12.8
		l-12.5-9.2l0,0l5.8-11.5l2.4-15.1l0,0l15.1,2.3l15.1-2.3l0,0l2.4,15.1l-6.7,20.7l4.8-14.8l0,0l12.7,2l15.1-2.3l0,0l2.3,15.1h21.6
		h-15.5l0,0l-2-12.8l6.7-20.6h21.6l6.7,20.6L182,41l0,0l11.5-5.9h21.6l6.7,20.6l-17.5,12.8l12.6-9.2l0,0l9.1,9.2l6.7,20.6
		l-17.5,12.7L197.6,89l12.5,9.1l0,0l-5.8,11.5l-17.5,12.7l-17.6-12.7L176,89l-4.8,14.7l0,0l-12.7-2L140.9,89h-21.6h15.5l0,0l2,12.7
		l7,13.6l0,0l-13.6,7l-10.8,10.8l0,0l-10.8-10.8l-6.7-20.6l4.8,14.7l0,0l-11.5,5.9l-10.8,10.8l0,0l-10.8-10.8l-13.6-7l0,0l7-13.6
		L84.2,89"/>
</g>
<g>
	<path id="LINE1_2_" class="st1" d="M84.2,89H62.6"/>
	<path id="LINE2_2_" class="st1" d="M62.6,89l-6.7-20.6"/>
	<path id="LINE3_2_" class="st1" d="M55.9,68.4l17.5-12.8"/>
	<path id="LINE4_1_" class="st1" d="M90.9,68.4l-6.7-20.7"/>
	<path id="LINE5_1_" class="st1" d="M84.2,47.8L101.7,35"/>
	<path id="LINE6_1_" class="st1" d="M101.7,35l17.6,12.7"/>
	<path id="LINE7_1_" class="st1" d="M112.5,68.4l17.6-12.8"/>
	<path id="LINE8" class="st1" d="M130.1,55.6l17.5,12.8"/>
	<path id="LINE9" class="st1" d="M169.2,68.4l-17.5-12.8"/>
	<path id="LINE10" class="st1" d="M186.8,55.6l6.7-20.6"/>
	<path id="LINE11" class="st1" d="M204.3,68.4h21.6"/>
	<path id="LINE12" class="st1" d="M197.6,89l6.7,20.6"/>
	<path id="LINE13" class="st1" d="M176,89l-17.6,12.7"/>
	<path id="LINE14" class="st1" d="M119.3,89l17.5,12.7"/>
	<path id="LINE15" class="st1" d="M136.8,101.7l-6.7,20.6"/>
	<path id="LINE16" class="st1" d="M130.1,122.3h-21.6"/>
	<path id="LINE17" class="st1" d="M101.7,101.7l-6.7,20.6"/>
	<path id="LINE18" class="st1" d="M95.1,122.3H73.4"/>
	<path id="LINE19" class="st1" d="M73.4,122.3l-6.7-20.6"/>
	<path id="dod-fold-1" class="st1" d="M84.2,89l6.7-20.6h21.6l6.7,20.6l-17.6,12.7L84.2,89"/>
	<path id="dod-fold-2" class="st1" d="M176,89l-6.7-20.6l17.6-12.8l17.5,12.8L197.6,89H176"/>
	<path id="dod-fold-3" class="st1" d="M140.9,89l6.7-20.6"/>
</g>
<g>
	<path id="ico-outline" class="st0" d="M84.9,219.7l-6.4-23.9l0,0l23.9-6.4l17.6,30.4l-6.4-23.9l0,0l23.9-6.4l17.5,30.4l-6.4-23.9
		l0,0l23.9-6.4l17.5,30.4l-6.4-23.9l0,0l23.9-6.4l17.5,30.4l-6.4-23.9l0,0l23.9-6.4l17.6,30.4l-17.6,30.4L225,280.4l-23.9-6.4l0,0
		l6.4-23.9l-17.6,30.4L166,274l0,0l6.4-23.9l-17.6,30.4L131,274l0,0l6.4-23.9l-17.5,30.4L96,274l0,0l6.4-23.9l-17.5,30.4L61,274l0,0
		l6.4-23.9L61,226.1l0,0L84.9,219.7"/>
</g>
<g>
	<path id="LINE1_4_" class="st1" d="M84.9,219.7l17.5-30.4"/>
	<path id="LINE2_4_" class="st1" d="M119.9,219.7l17.5-30.4"/>
	<path id="LINE3_4_" class="st1" d="M154.9,219.7l17.6-30.4"/>
	<path id="LINE4_3_" class="st1" d="M189.9,219.7l17.6-30.4"/>
	<path id="LINE5_3_" class="st1" d="M225,219.7l17.5-30.4"/>
	<path id="LINE6_2_" class="st1" d="M225,280.4l-17.5-30.4"/>
	<path id="LINE7_2_" class="st1" d="M189.9,280.4l-17.5-30.4"/>
	<path id="LINE8_1_" class="st1" d="M154.9,280.4l-17.5-30.4"/>
	<path id="LINE9_1_" class="st1" d="M119.9,280.4l-17.6-30.4"/>
	<path id="LINE10_1_" class="st1" d="M84.9,280.4l-17.6-30.4"/>
	<path id="LINE11_1_" class="st1" d="M67.3,250.1l17.6-30.4"/>
	<path id="ico-fold-1" class="st1" d="M84.9,219.7H260"/>
	<path id="ico-fold-2" class="st1" d="M67.3,250.1h175.1"/>
	<path id="ico-fold-3" class="st1" d="M84.9,219.7l17.5,30.4l17.6-30.4l17.5,30.4l17.5-30.4l17.6,30.4l17.5-30.4l17.6,30.4
		l17.5-30.4l17.5,30.4"/>
</g>
</svg>
