<?xml version="1.0" encoding="utf-8"?>
<!-- Generator: Adobe Illustrator 24.0.3, SVG Export Plug-In . SVG Version: 6.00 Build 0)  -->
<svg version="1.1" id="Layer_1" xmlns="http://www.w3.org/2000/svg" xmlns:xlink="http://www.w3.org/1999/xlink" x="0px" y="0px"
	 viewBox="0 0 1060.2 2103.3" style="enable-background:new 0 0 1060.2 2103.3;" xml:space="preserve">
<style type="text/css">
	.st0{fill:none;stroke:#00BFFF;stroke-width:1.5143;stroke-miterlimit:3.0285;stroke-dasharray:3.7856,3.7856;}
	.st1{fill:none;stroke:#66BB6A;stroke-width:1.5143;stroke-miterlimit:3.0285;stroke-dasharray:3.7856,3.7856;}
	.st2{fill:none;stroke:#DC143C;stroke-width:1.5143;stroke-miterlimit:3.0285;}
</style>
<title>Passepartout</title>
<g>
	<path id="val-inside" class="st0" d="M173,226.8h711.5v711.6H173V226.8"/>
	<path id="val-outside" class="st0" d="M116.3,170.1h827.8v827.8H116.3V170.1"/>
	<path id="LINE3" class="st0" d="M116.3,113.4h827.8"/>
	<path id="LINE4" class="st0" d="M944.1,170.1h53.8"/>
	<path id="LINE5" class="st0" d="M997.9,997.8h-53.8"/>
	<path id="LINE6" class="st0" d="M944.1,1054.5H116.3"/>
	<path id="LINE7" class="st0" d="M116.3,997.8H62.5"/>
	<path id="LINE8" class="st0" d="M62.5,170.1h53.8"/>
</g>
<g>
	<path id="mountain-deep-inside" class="st1" d="M232.5,286.3h595.3v595.3H232.5V286.3"/>
</g>
<g>
	<path id="cut-diag-top" class="st2" d="M173,226.8L530.2,584l357.2-357.2"/>
	<path id="cut-diag-bot" class="st2" d="M173,941.1L530.2,584l357.2,357.1"/>
	<path id="cut-vert" class="st2" d="M530.2,584L530.2,584"/>
	<path id="cut-sides" class="st2" d="M116.3,170.1v-56.6V56.7h827.8v56.7v56.6V56.7h53.8v113.3h5.7v827.8h-5.7v113.3h-53.8V997.8
		v56.7v56.6H116.3v-56.6v-56.7v113.3H62.5V997.8h-5.7V170.1h5.7V56.7h53.8V170.1"/>
</g>
</svg>
