<?xml version="1.0" encoding="utf-8"?>
<!-- Generator: Adobe Illustrator 24.0.3, SVG Export Plug-In . SVG Version: 6.00 Build 0)  -->
<svg version="1.1" id="Layer_1" xmlns="http://www.w3.org/2000/svg" xmlns:xlink="http://www.w3.org/1999/xlink" x="0px" y="0px"
	 viewBox="0 0 460.6 406.1" style="enable-background:new 0 0 460.6 406.1;" xml:space="preserve">
<style type="text/css">
	.st0{fill:none;stroke:#DC143C;stroke-width:1.5152;stroke-miterlimit:3.0304;}
	.st1{fill:none;stroke:#F0F0F0;stroke-width:1.5152;stroke-miterlimit:3.0304;}
</style>
<title>Cone (truncated)</title>
<g>
	<path id="outer-arc" class="st0" d="M404.2,76.6l-1.1,28.3l-3.4,28.1l-5.6,27.8l-7.9,27.2l-10,26.5l-12,25.7l-14.2,24.5l-16,23.4
		l-17.9,22l-19.5,20.5l-21.1,18.9"/>
	<path id="inner-arc" class="st0" d="M60.4,76.6v0.8l-0.1,0.8L60.2,79l-0.2,0.8l-0.3,0.8l-0.4,0.8L58.9,82l-0.5,0.7l-0.5,0.6
		l-0.5,0.6l-0.6,0.5"/>
	<path id="edge-1" class="st0" d="M60.4,76.6l7.3-19.8H397l7.2,19.8"/>
	<path id="edge-2" class="st0" d="M56.7,84.4l218.6,265.2"/>
</g>
<g>
	<path id="LINE1" class="st1" d="M60.4,76.6h343.8"/>
</g>
</svg>
