<?xml version="1.0" encoding="utf-8"?>
<!-- Generator: Adobe Illustrator 24.0.3, SVG Export Plug-In . SVG Version: 6.00 Build 0)  -->
<svg version="1.1" id="Layer_1" xmlns="http://www.w3.org/2000/svg" xmlns:xlink="http://www.w3.org/1999/xlink" x="0px" y="0px"
	 viewBox="0 0 467.3 481.9" style="enable-background:new 0 0 467.3 481.9;" xml:space="preserve">
<style type="text/css">
	.st0{fill:none;stroke:#DC143C;stroke-width:1.5147;stroke-miterlimit:3.0293;}
	.st1{fill:none;stroke:#F0F0F0;stroke-width:1.5147;stroke-miterlimit:3.0293;}
</style>
<title>Cone (truncated)</title>
<g>
	<path id="outer-arc" class="st0" d="M410.7,76.7l-1.3,30.6l-4,30.4l-6.5,29.8l-9.1,29.2L378.2,225l-14,27.3L348,278.2l-18.5,24.5
		l-20.4,22.8l-22.3,20.9l-24.1,18.9L237,382l-27,14.5l-28.1,12.1l-29,9.7l-29.8,7"/>
	<path id="inner-arc" class="st0" d="M61.9,76.7v0.5l-0.1,0.6l-0.2,0.5l-0.2,0.5l-0.2,0.5l-0.2,0.5l-0.3,0.5l-0.4,0.5l-0.4,0.5
		l-0.4,0.4l-0.5,0.3l-0.5,0.3l-0.5,0.3l-0.5,0.2l-0.5,0.2L56.7,83"/>
	<path id="edge-1" class="st0" d="M61.9,76.7l7.2-19.8h334.4l7.2,19.8"/>
	<path id="edge-2" class="st0" d="M56.7,83l66.4,342.3"/>
</g>
<g>
	<path id="LINE1" class="st1" d="M61.9,76.7h348.8"/>
</g>
</svg>
