<?xml version="1.0" encoding="utf-8"?>
<!-- Generator: Adobe Illustrator 24.0.3, SVG Export Plug-In . SVG Version: 6.00 Build 0)  -->
<svg version="1.1" id="Layer_1" xmlns="http://www.w3.org/2000/svg" xmlns:xlink="http://www.w3.org/1999/xlink" x="0px" y="0px"
	 viewBox="0 0 217.5 474.5" style="enable-background:new 0 0 217.5 474.5;" xml:space="preserve">
<style type="text/css">
	.st0{fill:none;stroke:#DC143C;stroke-width:1.5135;stroke-miterlimit:3.0271;}
	.st1{fill:none;stroke:#00BFFF;stroke-width:1.5135;stroke-miterlimit:3.0271;stroke-dasharray:3.7839,3.7839;}
</style>
<title>Cake Slice Box</title>
<g>
	<path id="cut---outline" class="st0" d="M99.4,56.7h15.1l42.5,7.5v27.5l-42.5,7.5l41,11l-7.6,28.3l-18.2,39.1l-26.6-7.1l3.8-43
		l-41.1,11l-7.6-28.3l41-11l-42.5-7.5V64.2L99.4,56.7"/>
</g>
<g>
	<path id="LINE1" class="st1" d="M114.5,56.7v42.5"/>
	<path id="LINE2" class="st1" d="M148,138.5l-41-11"/>
	<path id="LINE3" class="st1" d="M106.9,127.5l-7.6-28.4"/>
	<path id="LINE4" class="st1" d="M99.3,99.1V56.7"/>
	<path id="fold---base" class="st1" d="M99.4,99.1h15.1l-7.6,28.4"/>
</g>
<g>
	<path id="cut---outline_1_" class="st0" d="M100.8,291H117l42.5,7.5v30.4l-42.5,7.5l43.9,11.8l-8.1,30.3l-18.2,39l-29.4-7.9l3.8-43
		l-44,11.8l-8.1-30.3l43.9-11.8l-42.5-7.5v-30.4L100.8,291"/>
</g>
<g>
	<path id="LINE1_1_" class="st1" d="M117,291v45.4"/>
	<path id="LINE2_1_" class="st1" d="M152.8,378.5l-43.9-11.8"/>
	<path id="LINE3_1_" class="st1" d="M108.9,366.7l-8.2-30.3"/>
	<path id="LINE4_1_" class="st1" d="M100.7,336.4V291"/>
	<path id="fold---base_1_" class="st1" d="M100.8,336.4H117l-8.1,30.3"/>
</g>
</svg>
