<?xml version="1.0" encoding="utf-8"?>
<!-- Generator: Adobe Illustrator 24.0.3, SVG Export Plug-In . SVG Version: 6.00 Build 0)  -->
<svg version="1.1" id="Layer_1" xmlns="http://www.w3.org/2000/svg" xmlns:xlink="http://www.w3.org/1999/xlink" x="0px" y="0px"
	 viewBox="0 0 456 622.7" style="enable-background:new 0 0 456 622.7;" xml:space="preserve">
<style type="text/css">
	.st0{font-family:'Helvetica';}
	.st1{font-size:7.5745px;}
	.st2{fill:none;stroke:#00BFFF;stroke-width:1.5149;stroke-miterlimit:3.0298;stroke-dasharray:3.7872,3.7872;}
	.st3{fill:none;stroke:#DC143C;stroke-width:1.5149;stroke-miterlimit:3.0298;}
	.st4{fill:#FFFFFF;stroke:#000000;stroke-miterlimit:10;}
</style>
<title>Polygonal-based Pyramid</title>
<text transform="matrix(1 0 0 1 28.3584 28.3947)" class="st0 st1">Polygonal-based Pyramid: 1</text>
<text transform="matrix(1 0 0 1 28.3584 42.5743)" class="st0 st1">D6x8 (cm)</text>
<text transform="matrix(1 0 0 1 28.3584 608.8248)" class="st0 st1">Created using templatemaker.nl Copyright. Commercial use allowed but do not re-publish digitally or in print.</text>
<g>
	<path id="radial-fold-1" class="st2" d="M139.7,458l36.9-239.5"/>
	<path id="radial-fold-2" class="st2" d="M139.7,458L247,240.7"/>
	<path id="radial-fold-3" class="st2" d="M139.7,458l167.8-174.9"/>
	<path id="radial-fold-4" class="st2" d="M139.7,458l212.6-116.3"/>
	<path id="radial-fold-5" class="st2" d="M139.7,458l237.8-46.8"/>
	<path id="radial-fold-6" class="st2" d="M139.7,458l240.8,27"/>
	<path id="tangential-glue" class="st2" d="M102.8,218.5h73.8"/>
	<path id="LINE8" class="st2" d="M361.2,556.2L139.7,458"/>
	<path id="LINE9" class="st2" d="M176.6,218.5l70.4,22.2"/>
	<path id="LINE10" class="st2" d="M247,240.7l60.4,42.4"/>
	<path id="LINE11" class="st2" d="M307.4,283.1l44.8,58.6"/>
	<path id="LINE12" class="st2" d="M352.3,341.7l25.1,69.5"/>
	<path id="LINE13" class="st2" d="M377.4,411.2l3,73.8"/>
	<path id="LINE14" class="st2" d="M380.5,485l-19.3,71.2"/>
</g>
<g>
	<path id="radial" class="st3" d="M139.7,458l-36.9-239.5"/>
	<path id="radial-glue" class="st3" d="M361.2,556.2l-26.2,10.1l-185.2-82.2L139.7,458"/>
	<path id="tangential-glue_1_" class="st3" d="M176.6,218.5l24.9-13l32.6,10.3l13,24.8l27.6-4.8l27.9,19.6l4.9,27.6l27.8,3.7
		l20.8,27.1l-3.7,27.8l25.4,12l11.7,32l-11.9,25.5l20.6,19l1.4,34.1l-19,20.7l13.9,24.3l-8.9,32.9l-24.3,13.9"/>
	<path id="polygon" class="st3" d="M102.8,218.5l-46.1-57.7l16.4-72l66.5-32l66.5,32l16.4,72l-46.1,57.7"/>
</g>
<path class="st4" d="M176.9,349.9l-8.5-3.5c-1.7-0.7-2.6-2.7-1.9-4.5l9.5-26.2c0.6-1.8,2.5-2.6,4.3-1.9l8.5,3.5
	c1.7,0.7,2.6,2.7,1.9,4.5l-9.5,26.2C180.5,349.7,178.6,350.6,176.9,349.9z"/>
<path class="st4" d="M184.2,315.5c-5.6,16.4-11.7,32.6-11.7,32.6"/>
<line class="st4" x1="171.4" y1="328.6" x2="186" y2="334.6"/>
<path class="st4" d="M248.2,459.3l0-9.2c0-1.8,1.5-3.4,3.4-3.5l27.8-1.3c1.9-0.1,3.4,1.3,3.4,3.2l0,9.2c0,1.8-1.5,3.4-3.4,3.5
	l-27.8,1.3C249.8,462.6,248.2,461.2,248.2,459.3z"/>
<path class="st4" d="M282.8,452.8c-17.3,1.1-34.6,1.8-34.6,1.8"/>
<line class="st4" x1="265.7" y1="446" x2="265.9" y2="461.8"/>
<path class="st4" d="M242.9,386.3l-5.5-7.3c-1.1-1.5-0.8-3.7,0.6-4.8l21.5-17.7c1.4-1.2,3.5-0.9,4.6,0.5l5.5,7.3
	c1.1,1.5,0.8,3.7-0.6,4.8l-21.5,17.7C246.1,388.1,244,387.8,242.9,386.3z"/>
<path class="st4" d="M266.7,360.4c-13.2,11.3-26.7,22.1-26.7,22.1"/>
<line class="st4" x1="249" y1="365.2" x2="258.6" y2="377.8"/>
</svg>
