<?xml version="1.0" encoding="utf-8"?>
<!-- Generator: Adobe Illustrator 24.0.3, SVG Export Plug-In . SVG Version: 6.00 Build 0)  -->
<svg version="1.1" id="Layer_1" xmlns="http://www.w3.org/2000/svg" xmlns:xlink="http://www.w3.org/1999/xlink" x="0px" y="0px"
	 viewBox="0 0 546.1 792.4" style="enable-background:new 0 0 546.1 792.4;" xml:space="preserve">
<style type="text/css">
	.st0{font-family:'Helvetica';}
	.st1{font-size:7.5685px;}
	.st2{fill:none;stroke:#00BFFF;stroke-width:1.5137;stroke-miterlimit:3.0274;stroke-dasharray:3.7843,3.7843;}
	.st3{fill:none;stroke:#DC143C;stroke-width:1.5137;stroke-miterlimit:3.0274;}
	.st4{fill:#FFFFFF;stroke:#000000;stroke-miterlimit:10;}
	.st5{fill:none;stroke:#000000;stroke-miterlimit:10;}
</style>
<title>Polygonal-based Pyramid</title>
<text transform="matrix(1 0 0 1 28.5493 28.3365)" class="st0 st1">Polygonal-based Pyramid: 1</text>
<text transform="matrix(1 0 0 1 28.5493 42.505)" class="st0 st1">D8x10 (cm)</text>
<text transform="matrix(1 0 0 1 28.5493 777.9791)" class="st0 st1">Created using templatemaker.nl Copyright. Commercial use allowed but do not re-publish digitally or in print.</text>
<g>
	<path id="radial-fold-1" class="st2" d="M167.4,573.3l49.2-301.2"/>
	<path id="radial-fold-2" class="st2" d="M167.4,573.3l142.4-269.9"/>
	<path id="radial-fold-3" class="st2" d="M167.4,573.3l220.8-210.6"/>
	<path id="radial-fold-4" class="st2" d="M167.4,573.3L443.8,444"/>
	<path id="radial-fold-5" class="st2" d="M167.4,573.3l303.2-34.7"/>
	<path id="radial-fold-6" class="st2" d="M167.4,573.3l298.5,63.5"/>
	<path id="tangential-glue" class="st2" d="M118.2,272.2h98.4"/>
	<path id="LINE8" class="st2" d="M430.3,728.5L167.4,573.3"/>
	<path id="LINE9" class="st2" d="M216.6,272.2l93.2,31.3"/>
	<path id="LINE10" class="st2" d="M309.8,303.4l78.4,59.3"/>
	<path id="LINE11" class="st2" d="M388.3,362.8l55.6,81.2"/>
	<path id="LINE12" class="st2" d="M443.8,444l26.8,94.6"/>
	<path id="LINE13" class="st2" d="M470.6,538.6l-4.7,98.2"/>
	<path id="LINE14" class="st2" d="M465.9,636.8l-35.6,91.7"/>
</g>
<g>
	<path id="radial" class="st3" d="M167.4,573.3l-49.2-301.2"/>
	<path id="radial-glue" class="st3" d="M430.3,728.5l-27.2,7l-228.7-135l-7-27.2"/>
	<path id="tangential-glue_1_" class="st3" d="M216.6,272.2l25.1-12.5l55.7,18.6l12.5,25.1l27.8-3.9l46.8,35.4l3.9,27.8l27.6,5.1
		l33.1,48.4l-5.1,27.6l24.4,13.6l16,56.5l-13.7,24.5l18.8,20.7l-2.8,58.7L466,636.6l11.3,25.7L456,717l-25.7,11.3"/>
	<path id="polygon" class="st3" d="M118.2,272.2l-61.3-76.9l21.9-95.9l88.6-42.7L256,99.4l21.9,95.9l-61.3,76.9"/>
</g>
<path class="st4" d="M289.7,501.2l-8.4-10.7c-1.7-2.1-1.3-5.3,0.8-7l32.4-25.2c2.1-1.7,5.3-1.3,7,0.8l8.4,10.7
	c1.7,2.1,1.3,5.3-0.8,7L296.7,502C294.5,503.7,291.4,503.3,289.7,501.2z"/>
<path class="st4" d="M325.5,464c-19.8,16.1-40.1,31.5-40.1,31.5"/>
<line class="st5" x1="298.7" y1="470.5" x2="313.3" y2="489.1"/>
<path class="st4" d="M216.2,447.8l-12.8-4.6c-2.5-0.9-4-3.8-3-6.4l14-38.6c0.9-2.5,3.8-4,6.4-3l12.8,4.6c2.5,0.9,4,3.8,3,6.4
	l-14,38.6C221.7,447.4,218.8,448.7,216.2,447.8z"/>
<path class="st4" d="M226.7,397.3c-8.3,24.2-17.3,48-17.3,48"/>
<line class="st5" x1="207.5" y1="417.1" x2="229.8" y2="425"/>
<path class="st4" d="M293.1,587.4l0.9-13.6c0.2-2.7,2.6-4.8,5.3-4.7l41,2.6c2.7,0.2,4.8,2.6,4.7,5.3l-0.9,13.6
	c-0.2,2.7-2.6,4.8-5.3,4.7l-41-2.6C295,592.5,292.9,590.1,293.1,587.4z"/>
<path class="st4" d="M344.5,583.3c-25.5-1.1-51-3-51-3"/>
<line class="st5" x1="320.1" y1="570.4" x2="318.7" y2="594"/>
</svg>
