<?xml version="1.0" encoding="utf-8"?>
<!-- Generator: Adobe Illustrator 24.0.3, SVG Export Plug-In . SVG Version: 6.00 Build 0)  -->
<svg version="1.1" id="Layer_1" xmlns="http://www.w3.org/2000/svg" xmlns:xlink="http://www.w3.org/1999/xlink" x="0px" y="0px"
	 viewBox="0 0 793.7 1417.3" style="enable-background:new 0 0 793.7 1417.3;" xml:space="preserve">
<style type="text/css">
	.st0{fill:none;}
	.st1{font-family:'Helvetica';}
	.st2{font-size:7.5712px;}
	.st3{fill:none;stroke:#000000;stroke-width:1.5142;stroke-miterlimit:3.0285;stroke-dasharray:3.7856,3.7856;}
	.st4{fill:none;stroke:#000000;stroke-width:1.5142;stroke-miterlimit:3.0285;}
</style>
<g id="Layer_1_1_">
	<title>Parallelepiped</title>
	<text transform="matrix(1 0 0 1 28.4678 1403.15)" class="st0 st1 st2">Created using templatemaker.nl Copyright. Commercial use allowed but do not re-publish digitally or in print.</text>
	<g>
		<path id="fold-1" class="st3" d="M113.5,737V170h566.9v567H113.5"/>
		<path id="fold-2" class="st3" d="M113.5,793.7h566.9"/>
		<path id="LINE3" class="st3" d="M113.5,737H56.8"/>
		<path id="LINE4" class="st3" d="M56.8,170h56.7"/>
		<path id="LINE5" class="st3" d="M113.5,113.4h566.9"/>
		<path id="LINE6" class="st3" d="M680.5,170h56.6"/>
		<path id="LINE7" class="st3" d="M737.1,737h-56.6"/>
		<path id="LINE8_2_" class="st3" d="M680.5,1360.6"/>
		<path id="LINE8_1_" class="st3" d="M680.5,793.7"/>
		<path id="LINE9_2_" class="st3" d="M113.5,793.7"/>
		<path id="LINE9_1_" class="st3" d="M113.5,1360.6"/>
	</g>
	<g>
		<polyline class="st4" points="113.5,170 85.1,141.7 56.8,170 56.8,737 85.1,765.4 113.5,737 85.1,765.4 85.1,765.4 56.8,737 
			56.8,170 85.1,141.7 85.1,141.7 113.5,170 113.5,113.4 170.1,56.7 623.7,56.7 680.4,113.4 680.4,170 708.7,141.7 708.7,141.7 
			737,170 737,737 708.7,765.4 708.7,765.4 680.5,737 680.5,793.7 627.5,850.4 160.6,850.4 113.5,793.7 113.5,737 		"/>
	</g>
</g>
<g id="Layer_2_1_">
</g>
</svg>
