<?xml version="1.0" encoding="utf-8"?>
<!-- Generator: Adobe Illustrator 24.0.3, SVG Export Plug-In . SVG Version: 6.00 Build 0)  -->
<svg version="1.1" id="Layer_1" xmlns="http://www.w3.org/2000/svg" xmlns:xlink="http://www.w3.org/1999/xlink" x="0px" y="0px"
	 viewBox="0 0 431.1 292.2" style="enable-background:new 0 0 431.1 292.2;" xml:space="preserve">
<style type="text/css">
	.st0{fill:none;stroke:#DC143C;stroke-width:1.5138;stroke-miterlimit:3.0275;}
	.st1{fill:none;stroke:#F0F0F0;stroke-width:1.5138;stroke-miterlimit:3.0275;}
</style>
<title>Cone (truncated)</title>
<g>
	<path id="outer-arc" class="st0" d="M374.5,76.5l-0.6,13.5l-1.7,13.5l-2.9,13.2l-4,13l-5.1,12.6l-6.2,12.1l-7.2,11.6l-8.1,10.9
		l-9,10.1l-9.9,9.3l-10.7,8.5l-11.3,7.6l-12,6.5l-12.4,5.5l-12.9,4.4l-13.2,3.3l-13.5,2.2l-13.5,1l-13.5-0.2l-13.5-1.4l-13.4-2.4
		l-13.1-3.6l-12.7-4.8l-12.3-5.8l-11.7-6.8l-11.2-7.8l-10.4-8.8l-9.7-9.5L90,174l-7.9-11.1l-6.9-11.7l-5.9-12.3l-4.8-12.7l-3.7-13.1
		l-2.6-13.3l-1.4-13.5"/>
	<path id="inner-arc" class="st0" d="M244.5,76.5l-0.2,2.5l-0.3,2.4l-0.5,2.4l-0.7,2.3l-1,2.3l-1.1,2.2l-1.4,2.1l-1.4,2l-1.7,1.9
		l-1.8,1.7l-1.9,1.6l-2,1.4l-2.2,1.1l-2.3,1l-2.3,0.8l-2.4,0.6l-2.4,0.4l-2.4,0.2l-2.5-0.1l-2.5-0.2l-2.4-0.5l-2.3-0.7l-2.3-0.8
		l-2.2-1.1l-2.2-1.2l-2-1.4l-1.9-1.6l-1.8-1.7l-1.6-1.9l-1.4-2l-1.2-2.1l-1.1-2.2l-0.9-2.3l-0.7-2.3l-0.5-2.4l-0.2-2.5"/>
	<path id="edge-1" class="st0" d="M244.5,76.5l7.2-19.8h115.7l7.2,19.8"/>
	<path id="edge-2" class="st0" d="M186.7,78.3L56.9,86.2"/>
</g>
<g>
	<path id="LINE1" class="st1" d="M244.5,76.5h130"/>
</g>
</svg>
