<?xml version="1.0" encoding="utf-8"?>
<!-- Generator: Adobe Illustrator 24.0.3, SVG Export Plug-In . SVG Version: 6.00 Build 0)  -->
<svg version="1.1" id="Layer_1" xmlns="http://www.w3.org/2000/svg" xmlns:xlink="http://www.w3.org/1999/xlink" x="0px" y="0px"
	 viewBox="0 0 329.4 299.4" style="enable-background:new 0 0 329.4 299.4;" xml:space="preserve">
<style type="text/css">
	.st0{fill:none;stroke:#DC143C;stroke-width:1.5144;stroke-miterlimit:3.0287;}
	.st1{fill:none;stroke:#F0F0F0;stroke-width:1.5144;stroke-miterlimit:3.0287;}
</style>
<title>Cone (truncated)</title>
<g>
	<path id="outer-arc" class="st0" d="M272.7,76.7l-0.6,14.2l-1.8,14l-3,13.9l-4.2,13.6l-5.3,13.1l-6.4,12.6l-7.5,12l-8.4,11.4
		l-9.4,10.6l-10.2,9.8l-11.1,8.9l-11.8,7.9l-12.3,6.9l-12.9,5.8l-13.4,4.7l-13.7,3.5l-13.9,2.3l-14.2,1.1l-14.2-0.1l-14.1-1.3
		l-13.9-2.5l-13.7-3.6"/>
	<path id="inner-arc" class="st0" d="M153.9,76.7l-0.2,4l-0.5,4l-0.8,4l-1.2,3.9l-1.5,3.7l-1.8,3.6l-2.1,3.4l-2.4,3.3l-2.7,3l-3,2.8
		l-3.1,2.6l-3.4,2.2l-3.6,2l-3.6,1.7l-3.9,1.4l-3.9,1l-3.9,0.7l-4.1,0.3h-4l-4-0.4l-4-0.7l-3.9-1.1"/>
	<path id="edge-1" class="st0" d="M153.9,76.7l7.2-19.8h104.3l7.3,19.8"/>
	<path id="edge-2" class="st0" d="M92.1,122.1L56.7,235.4"/>
</g>
<g>
	<path id="LINE1" class="st1" d="M153.9,76.7h118.8"/>
</g>
</svg>
